<svg xmlns="http://www.w3.org/2000/svg" version="1.0" width="284" height="110" xml:space="preserve"><defs><clipPath id="a"><path d="M0 0h172v50H0V0z"/></clipPath></defs><g clip-path="url(#a)" style="fill:#fff" transform="matrix(1.0886 0 0 -1.08018 48.5 82)"><path d="M49.992 39.514H39.46l.005 10.477-1.82-1.285v-9.193h-1.83l-.029 7.672-1.808-1.703v-5.968h-1.833v4.01l-1.833-2.284v-1.727h-9.2l.325-.568V24.876l-1.814-.278V41.24l-1.837 2.293V24.17l-1.837-.622v21.942l-1.837 1.707V22.814l-1.837-.925v26.807l-1.823 1.296V39.514H0l1.325-1.825h9.116V35.87H2.825l1.697-1.818h5.92l.01-1.82H6.46l2.258-1.817h1.723l.01-9.3.353.321h14.273l.257-1.816H8.718l-2.242-1.818h19.3l.588-1.817H4.537l-1.7-1.818H27.12l.874-1.818H1.336l-1.31-1.823 10.426.003V0l1.823 1.33v9.2h1.837V2.83l1.837 1.705v5.98h1.837V6.493l1.837 2.267v1.756l9.244.015-.397.41v14.212l1.842.277V8.804l1.833-2.26V25.86l1.833.607V4.557l1.808-1.695v24.362l1.858.935V1.324L39.464 0v10.53h10.528l-1.327 1.82H39.46v1.818h7.688l-1.718 1.818h-5.97v1.817h4.013l-2.265 1.818H39.46l.005 9.256-.453-.258H24.796l-.258 1.797h16.67l2.264 1.818H24.097l-.58 1.82 21.924.013 1.7 1.804H22.772l-.898 1.818h26.78l1.337 1.825zm20.984-.115h-10.51v-3.573h10.51V39.4zm0-5.376h-10.51v-1.821h10.51v1.821zm96.704 5.363-1.381.118c-.136.014-23.292 0-23.292 0-2.394.09-4.506-1.494-5.205-3.679h33.721c-.556 1.745-2 3.15-3.843 3.56zm-57.41-5.363H99.78v-1.821h10.49v1.821zm18.579 5.387-.008-.001-29.06-.01v-3.573h34.04a5.243 5.243 0 0 1-4.972 3.584zm19.12-7.16c.007.776.49 1.436 1.156 1.772h-11.569v-1.82h10.413v.049zm-24.378-.048 10.5-.002.002 1.823-11.789-.001a2.022 2.022 0 0 0 1.287-1.82zm42.708-6.322v.03c2.717-.155 5.05 1.84 5.427 4.478 0 .002-10.44 0-10.44 0a2.028 2.028 0 0 0-2.02-1.963h-11.298v-5.242l11.297-.002c1.12 0 2.027-.909 2.027-2.028v-3.229c0-1.12-.907-2.07-2.027-2.073h-9.193c-1.12.004-2.104.952-2.104 2.073v.55h-10.411v-2.65c0-3.06 2.72-5.515 5.765-5.217H166.3c3.045-.297 5.481 2.156 5.481 5.218v5.61c-.4 2.662-2.806 4.596-5.481 4.445zm-95.323-6.095V30.39h-10.51V10.467h10.51l13.196 19.556V10.467h10.489V30.39H78.11l-7.135-10.605zm89.22 14.238a2.025 2.025 0 0 0 1.096-1.794V32.2l10.488.002v1.821h-11.584zm-80.867-1.821h15.332v1.821H80.555l-1.226-1.821zm2.439 3.624H94.66V39.4H84.172l-2.404-3.573zm41.828-7.963c0-1.12-.906-2.07-2.026-2.074l-11.301-.01v4.61H99.781V10.468h10.488v10.069l18.572.009c2.897 0 5.245 2.457 5.245 5.354l.003 4.49h-10.492v-2.526" style="fill:#fff;fill-opacity:1;fill-rule:evenodd;stroke:none"/></g></svg>